<svg width="620" height="168" viewBox="0 0 620 168" fill="none" xmlns="http://www.w3.org/2000/svg">
    <style>
        path {
            fill: black;
        }

        @media (prefers-color-scheme: dark) {
            path {
                fill: white;
            }
        }
    </style>
    <path
        d="M34.392 125.736H31.848V147.72H34.392V125.736ZM2.56803 128.136V130.248H19.032C18.408 138.168 11.256 143.784 0.504028 146.472L1.46403 148.536C13.512 145.608 21.816 138.504 21.816 128.136H2.56803ZM9.96003 165.816V159.528H34.392V149.928H7.32003V152.04H31.896V157.512H7.46403V167.928H36.072V165.816H9.96003Z"
        fill="black" fill-opacity="0.3" />
    <path
        d="M76.0523 125.688V136.968H64.8683V128.088H62.3723V135.48H48.7403V128.04H46.1963V147.72H64.8683V139.128H76.0523V150.456H78.5963V125.736L76.0523 125.688ZM62.3723 145.56H48.7403V137.64H62.3723V145.56ZM51.3803 167.688H78.5963V152.856H51.3803V167.688ZM53.8763 154.92H76.1483V165.528H53.8763V154.92Z"
        fill="black" fill-opacity="0.3" />
    <path
        d="M91.7445 144.264C97.9365 143.256 104.993 139.848 107.297 134.472C109.601 139.704 116.753 143.256 122.849 144.264L123.857 142.2C117.425 141.192 108.833 136.92 108.833 130.872V130.152H123.089V128.04H91.6005V130.152H105.857V130.872C105.857 136.968 97.2645 141.192 90.7365 142.2L91.7445 144.264ZM87.9525 148.056V150.168H106.193V159.72H108.737V150.168H126.689V148.056H87.9525ZM95.6805 155.304H93.1365V167.304H122.369V165.144H95.6805V155.304Z"
        fill="black" fill-opacity="0.3" />
    <path
        d="M52.328 41.344C56.584 37.648 59.16 32.496 59.16 26C59.16 12.448 48.072 3.59999 34.408 3.59999H3.71997V82H36.648C50.648 82 61.96 72.928 61.96 59.04C61.96 51.088 58.152 45.04 52.328 41.344ZM34.408 20.4C38.552 20.4 41.24 23.312 41.24 27.344C41.24 31.376 38.44 34.288 34.408 34.288H21.64V20.4H34.408ZM36.648 65.2H21.64V50.192H36.648C41.128 50.192 44.04 53.328 44.04 57.696C44.04 62.064 41.128 65.2 36.648 65.2Z"
        fill="black" />
    <path
        d="M86.418 60.72H126.178C126.626 58.592 126.85 56.352 126.85 54C126.85 37.088 114.754 24.432 98.402 24.432C80.706 24.432 68.61 37.312 68.61 54C68.61 70.688 80.482 83.568 99.634 83.568C110.274 83.568 118.562 79.648 124.05 72.032L110.61 64.304C108.37 66.768 104.45 68.56 99.858 68.56C93.698 68.56 88.546 66.544 86.418 60.72ZM86.082 48.176C87.65 42.464 91.906 39.328 98.29 39.328C103.33 39.328 108.37 41.68 110.162 48.176H86.082Z"
        fill="black" />
    <path
        d="M162.712 83.568C179.176 83.568 192.392 70.688 192.392 54C192.392 37.312 179.176 24.432 162.712 24.432C146.248 24.432 133.032 37.312 133.032 54C133.032 70.688 146.248 83.568 162.712 83.568ZM162.712 67.216C155.432 67.216 149.832 61.952 149.832 54C149.832 46.048 155.432 40.784 162.712 40.784C169.992 40.784 175.592 46.048 175.592 54C175.592 61.952 169.992 67.216 162.712 67.216Z"
        fill="black" />
    <path
        d="M264.614 24.432C256.662 24.432 251.51 27.344 248.374 31.824C245.238 27.12 240.31 24.432 233.702 24.432C226.198 24.432 221.27 27.344 218.694 31.152V26H201.894V82H218.694V50.416C218.694 43.808 221.83 39.888 227.43 39.888C232.806 39.888 235.494 43.472 235.494 49.072V82H252.294V50.416C252.294 43.808 255.43 39.888 261.03 39.888C266.406 39.888 269.094 43.472 269.094 49.072V82H285.894V47.616C285.894 33.616 277.494 24.432 264.614 24.432Z"
        fill="black" />
    <path
        d="M306.365 21.072C311.853 21.072 316.445 16.48 316.445 10.992C316.445 5.50399 311.853 0.911987 306.365 0.911987C300.877 0.911987 296.285 5.50399 296.285 10.992C296.285 16.48 300.877 21.072 306.365 21.072ZM297.965 82C297.965 87.936 295.165 90.176 289.005 89.84V105.968C306.701 106.976 314.765 99.472 314.765 82V26H297.965V82Z"
        fill="black" />
    <path
        d="M363.305 26V56.576C363.305 64.528 359.049 68.112 352.889 68.112C347.513 68.112 343.145 64.864 343.145 57.92V26H326.345V60.384C326.345 75.504 335.977 83.568 347.289 83.568C354.681 83.568 360.281 80.88 363.305 76.736V82H380.105V26H363.305Z"
        fill="black" />
    <path
        d="M425.242 24.432C417.85 24.432 412.25 27.12 409.226 31.264V26H392.426V82H409.226V51.424C409.226 43.472 413.482 39.888 419.642 39.888C425.018 39.888 429.386 43.136 429.386 50.08V82H446.186V47.616C446.186 32.496 436.554 24.432 425.242 24.432Z"
        fill="black" />
    <path
        d="M563.898 38.32H524.586V54H545.531C542.731 61.504 535.898 66.096 525.482 66.096C510.25 66.096 500.842 56.352 500.842 43.024C500.842 29.248 510.698 19.504 523.914 19.504C532.762 19.504 539.819 23.536 543.067 28.688L558.299 19.952C551.691 9.42399 539.034 2.03199 524.026 2.03199C500.954 2.03199 482.922 20.176 482.922 42.912C482.922 65.424 500.618 83.568 525.258 83.568C547.21 83.568 563.898 69.008 563.898 45.04V38.32Z"
        fill="black" />
    <path
        d="M581.841 21.072C587.329 21.072 591.921 16.48 591.921 10.992C591.921 5.50399 587.329 0.911987 581.841 0.911987C576.353 0.911987 571.761 5.50399 571.761 10.992C571.761 16.48 576.353 21.072 581.841 21.072ZM573.441 82H590.241V26H573.441V82Z"
        fill="black" />
    <path d="M602.535 82H619.335V0.23999H602.535V82Z" fill="black" />
</svg>
