<svg width="800" height="400" viewBox="0 0 800 400" fill="none" xmlns="http://www.w3.org/2000/svg">
<rect id="bg" width="800" height="400" fill="#FCFBF3"/>
<rect x="229.416" y="119" width="36.0394" height="112.933" fill="#121211"/>
<rect x="111" y="273" width="35.9333" height="154.454" transform="rotate(-90 111 273)" fill="#121211"/>
<path d="M111 231.933C125.874 231.933 140.603 229.012 154.345 223.337C168.087 217.661 180.574 209.343 191.092 198.856C201.609 188.369 209.953 175.919 215.645 162.218C221.337 148.516 224.267 133.831 224.267 119L111 119L111 231.933Z" fill="#121211"/>
<path d="M356.965 126.219H366.503V158.471H356.965V126.219ZM313.723 152.178C329.571 149.389 335.595 143.453 336.527 136.088H317.165V128.507H347.069C347.069 146.242 337.531 155.754 317.021 159.83L313.723 152.178ZM323.404 168.34V161.117H366.503V178.709H333.013V182.642H368.08V190.008H323.475V171.915H356.893V168.34H323.404Z" fill="#121211"/>
<path d="M371.591 129.937H381.129V138.304H392.89V129.937H402.284V141.379H413.471V126.362H423.081V163.548H413.471V149.031H402.284V160.902H371.591V129.937ZM379.91 190.008V166.194H423.081V190.008H379.91ZM381.129 153.394H392.89V145.67H381.129V153.394ZM389.304 182.499H413.686V173.56H389.304V182.499Z" fill="#121211"/>
<path d="M431.898 129.365H479.802V136.946H462.662C463.882 141.88 469.905 146.957 482.527 148.245L479.013 155.825C466.893 154.395 459.149 149.46 455.778 142.953C452.479 149.46 444.663 154.395 432.615 155.825L429.101 148.245C441.723 146.957 447.746 141.809 448.965 136.946H431.898V129.365ZM426.591 166.194V158.686H485.037V166.194H461.443V176.921H451.834V166.194H426.591ZM433.332 190.008V171.415H442.87V182.428H478.583V190.008H433.332Z" fill="#121211"/>
<path d="M671.296 263.746H663.522V228.977H670.972V233.677H671.231C673.305 230.394 676.479 228.526 680.366 228.526C686.067 228.526 690.084 232.454 690.732 238.635H682.699C682.18 236.575 680.366 235.287 678.034 235.287C674.082 235.287 671.296 238.957 671.296 244.301V263.746Z" fill="black" fill-opacity="0.5"/>
<path d="M622.264 263.746V216.1H630.038V244.044L643.189 228.977H652.778L640.209 243.014L653.685 263.746H644.744L635.026 248.744L630.038 254.346V263.746H622.264Z" fill="black" fill-opacity="0.5"/>
<path d="M592.148 258.274C592.148 254.861 594.869 252.157 598.303 252.157C601.737 252.157 604.458 254.861 604.458 258.274C604.458 261.686 601.737 264.39 598.303 264.39C594.869 264.39 592.148 261.686 592.148 258.274Z" fill="black" fill-opacity="0.5"/>
<path d="M547.586 263.746V228.977H555.036V233.549H555.295C557.109 230.201 560.219 228.333 564.236 228.333C570.65 228.333 574.796 233.034 574.796 240.245V263.746H567.022V240.889C567.022 237.09 565.143 234.772 562.033 234.772C558.146 234.772 555.36 238.378 555.36 243.464V263.746H547.586Z" fill="black" fill-opacity="0.5"/>
<path d="M534.509 252.157C534.509 255.44 534.704 259.69 534.963 263.746H527.512C527.318 262.137 527.189 260.656 527.059 259.175H526.8C524.986 262.523 521.876 264.39 517.859 264.39C511.446 264.39 507.299 259.69 507.299 252.479V228.977H515.074V251.835C515.074 255.634 516.952 257.952 520.062 257.952C523.949 257.952 526.735 254.346 526.735 249.259V228.977H534.509V252.157Z" fill="black" fill-opacity="0.5"/>
<path d="M494.028 264.197C494.028 272.761 489.688 277.268 481.395 277.268C478.739 277.268 476.212 276.817 474.269 275.916V269.477C476.147 270.314 478.091 270.7 479.905 270.7C484.181 270.7 486.254 268.576 486.254 264.197V236.06H474.592V228.977H494.028V264.197ZM483.598 218.611C483.598 215.327 486.254 212.752 489.493 212.752C492.797 212.752 495.389 215.327 495.389 218.611C495.389 221.83 492.797 224.47 489.493 224.47C486.254 224.47 483.598 221.83 483.598 218.611Z" fill="black" fill-opacity="0.5"/>
<path d="M428.929 263.746V228.977H435.731V232.969H435.99C436.962 230.072 439.424 228.333 442.339 228.333C445.125 228.333 447.328 229.879 448.494 232.712H448.753C450.178 229.814 452.64 228.333 455.815 228.333C460.738 228.333 463.848 231.875 463.848 237.348V263.746H456.398V238.635C456.398 236.253 455.296 234.772 453.547 234.772C451.539 234.772 450.114 236.768 450.114 239.666V263.746H442.663V238.635C442.663 236.253 441.627 234.772 439.877 234.772C437.804 234.772 436.379 236.897 436.379 239.923V263.746H428.929Z" fill="black" fill-opacity="0.5"/>
<path d="M405.487 264.39C396.417 264.39 389.744 256.793 389.744 246.362C389.744 235.931 396.417 228.333 405.487 228.333C414.557 228.333 421.23 235.931 421.23 246.362C421.23 256.793 414.557 264.39 405.487 264.39ZM405.487 257.308C410.216 257.308 413.455 252.865 413.455 246.362C413.455 239.859 410.216 235.416 405.487 235.416C400.757 235.416 397.518 239.859 397.518 246.362C397.518 252.865 400.757 257.308 405.487 257.308Z" fill="black" fill-opacity="0.5"/>
<path d="M361.766 248.487C362.414 254.217 365.394 257.63 370.059 257.63C372.974 257.63 375.307 256.278 376.084 254.088H383.47C382.304 260.27 376.926 264.39 370.059 264.39C360.665 264.39 353.992 256.793 353.992 246.169C353.992 235.738 360.406 228.333 369.346 228.333C378.092 228.333 384.118 235.352 384.118 245.589V248.487H361.766ZM369.346 234.901C365.589 234.901 362.868 237.734 361.961 242.434H376.343C375.955 237.863 373.169 234.901 369.346 234.901Z" fill="black" fill-opacity="0.5"/>
<path d="M315.455 263.746V216.1H323.229V234.128H323.488C325.496 230.329 328.671 228.333 332.882 228.333C341.11 228.333 346.94 235.867 346.94 246.362C346.94 256.857 341.11 264.39 332.882 264.39C328.412 264.39 325.108 262.137 323.164 257.952H322.905V263.746H315.455ZM331.133 257.308C335.862 257.308 339.166 252.801 339.166 246.362C339.166 239.923 335.862 235.416 331.133 235.416C326.403 235.416 323.099 239.923 323.099 246.362C323.099 252.801 326.403 257.308 331.133 257.308Z" fill="black" fill-opacity="0.5"/>

<style>
@media (prefers-color-scheme: dark) {
  path, rect:not(#bg) { fill: rgb(252, 251, 243); }
  #bg { fill: rgb(18, 18, 17); }
}
</style>
</svg>
